<svg width="current" height="current" viewBox="0 0 20 20" fill="none" xmlns="http://www.w3.org/2000/svg">
<path d="M19.5306 18.4208L14.8365 13.7277C16.1971 12.0943 16.8755 9.99925 16.7307 7.87839C16.5859 5.75752 15.629 3.77412 14.0591 2.3408C12.4892 0.907467 10.4271 0.13456 8.30188 0.18286C6.17663 0.23116 4.15181 1.09695 2.64864 2.60012C1.14547 4.10329 0.279683 6.12811 0.231383 8.25336C0.183083 10.3786 0.95599 12.4407 2.38932 14.0106C3.82265 15.5805 5.80604 16.5374 7.92691 16.6822C10.0478 16.827 12.1428 16.1485 13.7762 14.788L18.4693 19.4821C18.539 19.5518 18.6218 19.607 18.7128 19.6447C18.8038 19.6825 18.9014 19.7019 19 19.7019C19.0985 19.7019 19.1961 19.6825 19.2871 19.6447C19.3782 19.607 19.4609 19.5518 19.5306 19.4821C19.6003 19.4124 19.6556 19.3297 19.6933 19.2386C19.731 19.1476 19.7504 19.05 19.7504 18.9514C19.7504 18.8529 19.731 18.7553 19.6933 18.6643C19.6556 18.5732 19.6003 18.4905 19.5306 18.4208ZM1.74997 8.45145C1.74997 7.11642 2.14585 5.81138 2.88755 4.70135C3.62925 3.59132 4.68346 2.72615 5.91686 2.21526C7.15026 1.70437 8.50746 1.5707 9.81683 1.83115C11.1262 2.0916 12.3289 2.73447 13.2729 3.67848C14.2169 4.62248 14.8598 5.82522 15.1203 7.13459C15.3807 8.44396 15.2471 9.80116 14.7362 11.0346C14.2253 12.268 13.3601 13.3222 12.2501 14.0639C11.14 14.8056 9.83499 15.2014 8.49997 15.2014C6.71037 15.1995 4.99463 14.4877 3.72919 13.2222C2.46375 11.9568 1.75195 10.241 1.74997 8.45145Z" fill="#212121"/>
</svg>
